<svg xmlns="http://www.w3.org/2000/svg" xmlns:xlink="http://www.w3.org/1999/xlink" width="16" height="16" version="1.1" viewBox="0 0 16 16"><title>blur-black</title><desc>Created with Sketch.</desc><defs><linearGradient id="linearGradient-1" x1="60.012%" x2="60.012%" y1="-2.283%" y2="97.374%"><stop offset="0%" stop-color="#666"/><stop offset="100%" stop-color="#3F3F3F"/></linearGradient><filter id="filter-2" width="200%" height="200%" x="-50%" y="-50%" filterUnits="objectBoundingBox"><feOffset dx="0" dy="1" in="SourceAlpha" result="shadowOffsetOuter1"/><feGaussianBlur in="shadowOffsetOuter1" result="shadowBlurOuter1" stdDeviation="0"/><feColorMatrix in="shadowBlurOuter1" result="shadowMatrixOuter1" type="matrix" values="0 0 0 0 1 0 0 0 0 1 0 0 0 0 1 0 0 0 0.7 0"/><feOffset dx="0" dy="1" in="SourceAlpha" result="shadowOffsetInner1"/><feGaussianBlur in="shadowOffsetInner1" result="shadowBlurInner1" stdDeviation="0"/><feComposite in="shadowBlurInner1" in2="SourceAlpha" k2="-1" k3="1" operator="arithmetic" result="shadowInnerInner1"/><feColorMatrix in="shadowInnerInner1" result="shadowMatrixInner1" type="matrix" values="0 0 0 0 0 0 0 0 0 0 0 0 0 0 0 0 0 0 0.613768116 0"/><feMerge><feMergeNode in="shadowMatrixOuter1"/><feMergeNode in="SourceGraphic"/><feMergeNode in="shadowMatrixInner1"/></feMerge></filter><path id="path-3" d="M8.35552898,9.47537594 C8.7166963,9.90147487 8.9345172,10.4529231 8.9345172,11.0552461 C8.9345172,12.4054464 7.8399636,13.5 6.48976331,13.5 C5.88744029,13.5 5.33599207,13.2821791 4.90989314,12.9210118 C5.07504496,12.9493822 5.24484148,12.9641635 5.41809037,12.9641635 C7.06422497,12.9641635 8.39868073,11.6297078 8.39868073,9.98357316 C8.39868073,9.81032427 8.38389937,9.64052776 8.35552898,9.47537594 Z M9.58304151,7.99790754 C9.85121415,8.61092153 10,9.28808537 10,10 C10,12.7614237 7.76142375,15 5,15 C2.23857625,15 0,12.7614237 0,10 C0,8.5966633 0.578135375,7.32835736 1.50922338,6.42026491 L1.4375,6.40625 C1.4375,6.40625 3.22164697,5.13423849 4.03125,3.90625 C4.7737303,2.78007182 5.03125,0.9375 5.03125,0.9375 L8.74711084,6.68944896 C9.07858608,7.06435176 9.35466904,7.48937257 9.56254555,7.95169719 L9.59375,8 L9.58304151,7.99790754 Z"/></defs><g id="icons-moono" fill="none" fill-rule="evenodd" stroke="none" stroke-width="1"><g id="blur" filter="url(#filter-2)"><g id="Oval-6"><g transform="translate(3.000000, 0.000000)"><use fill="url(#linearGradient-1)" fill-rule="evenodd" xlink:href="#path-3"/><use fill="none" xlink:href="#path-3"/><use fill="none" xlink:href="#path-3"/></g></g></g></g></svg>