<svg xmlns="http://www.w3.org/2000/svg" xmlns:xlink="http://www.w3.org/1999/xlink" width="16" height="16" version="1.1" viewBox="0 0 16 16"><title>folder-rename-black</title><desc>Created with Sketch.</desc><defs><linearGradient id="linearGradient-1" x1="60.012%" x2="60.012%" y1="-2.283%" y2="97.374%"><stop offset="0%" stop-color="#666"/><stop offset="100%" stop-color="#3F3F3F"/></linearGradient><filter id="filter-2" width="200%" height="200%" x="-50%" y="-50%" filterUnits="objectBoundingBox"><feOffset dx="0" dy="1" in="SourceAlpha" result="shadowOffsetOuter1"/><feGaussianBlur in="shadowOffsetOuter1" result="shadowBlurOuter1" stdDeviation="0"/><feColorMatrix in="shadowBlurOuter1" result="shadowMatrixOuter1" type="matrix" values="0 0 0 0 1 0 0 0 0 1 0 0 0 0 1 0 0 0 0.7 0"/><feOffset dx="0" dy="1" in="SourceAlpha" result="shadowOffsetInner1"/><feGaussianBlur in="shadowOffsetInner1" result="shadowBlurInner1" stdDeviation="0"/><feComposite in="shadowBlurInner1" in2="SourceAlpha" k2="-1" k3="1" operator="arithmetic" result="shadowInnerInner1"/><feColorMatrix in="shadowInnerInner1" result="shadowMatrixInner1" type="matrix" values="0 0 0 0 0 0 0 0 0 0 0 0 0 0 0 0 0 0 0.613768116 0"/><feMerge><feMergeNode in="shadowMatrixOuter1"/><feMergeNode in="SourceGraphic"/><feMergeNode in="shadowMatrixInner1"/></feMerge></filter><path id="path-3" d="M5.53512878,11 L1.00247329,11 C0.455760956,11 0,10.5536144 0,10.0029699 L0,3.99703014 C0,3.45303631 0.448822582,3 1.00247329,3 L10.9975267,3 C11.544239,3 12,3.4463856 12,3.99703014 L12,6.3541756 C11.2670555,5.52375489 10.1946925,5 9,5 C6.790861,5 5,6.790861 5,9 C5,9.72857429 5.19478857,10.4116533 5.53512878,11 Z M0,0 L0,1 L6,1 L5,0 L0,0 Z M0,1 L0,2 L12,2 L12,1 L0,1 Z"/><filter id="filter-4" width="200%" height="200%" x="-50%" y="-50%" filterUnits="objectBoundingBox"><feOffset dx="0" dy="1" in="SourceAlpha" result="shadowOffsetOuter1"/><feGaussianBlur in="shadowOffsetOuter1" result="shadowBlurOuter1" stdDeviation="0"/><feColorMatrix in="shadowBlurOuter1" result="shadowMatrixOuter1" type="matrix" values="0 0 0 0 1 0 0 0 0 1 0 0 0 0 1 0 0 0 0.7 0"/><feOffset dx="0" dy="1" in="SourceAlpha" result="shadowOffsetInner1"/><feGaussianBlur in="shadowOffsetInner1" result="shadowBlurInner1" stdDeviation="0"/><feComposite in="shadowBlurInner1" in2="SourceAlpha" k2="-1" k3="1" operator="arithmetic" result="shadowInnerInner1"/><feColorMatrix in="shadowInnerInner1" result="shadowMatrixInner1" type="matrix" values="0 0 0 0 0 0 0 0 0 0 0 0 0 0 0 0 0 0 0.613768116 0"/><feMerge><feMergeNode in="shadowMatrixOuter1"/><feMergeNode in="SourceGraphic"/><feMergeNode in="shadowMatrixInner1"/></feMerge></filter><path id="path-5" d="M14,9 C14,6.23857625 11.7614237,4 9,4 C6.23857625,4 4,6.23857625 4,9 C4,11.7614237 6.23857625,14 9,14 C11.7614237,14 14,11.7614237 14,9 Z M13,9 C13,6.790861 11.209139,5 9,5 C6.790861,5 5,6.790861 5,9 C5,11.209139 6.790861,13 9,13 C11.209139,13 13,11.209139 13,9 Z"/><filter id="filter-6" width="200%" height="200%" x="-50%" y="-50%" filterUnits="objectBoundingBox"><feOffset dx="0" dy="1" in="SourceAlpha" result="shadowOffsetOuter1"/><feGaussianBlur in="shadowOffsetOuter1" result="shadowBlurOuter1" stdDeviation="0"/><feColorMatrix in="shadowBlurOuter1" result="shadowMatrixOuter1" type="matrix" values="0 0 0 0 1 0 0 0 0 1 0 0 0 0 1 0 0 0 0.7 0"/><feOffset dx="0" dy="1" in="SourceAlpha" result="shadowOffsetInner1"/><feGaussianBlur in="shadowOffsetInner1" result="shadowBlurInner1" stdDeviation="0"/><feComposite in="shadowBlurInner1" in2="SourceAlpha" k2="-1" k3="1" operator="arithmetic" result="shadowInnerInner1"/><feColorMatrix in="shadowInnerInner1" result="shadowMatrixInner1" type="matrix" values="0 0 0 0 0 0 0 0 0 0 0 0 0 0 0 0 0 0 0.613768116 0"/><feMerge><feMergeNode in="shadowMatrixOuter1"/><feMergeNode in="SourceGraphic"/><feMergeNode in="shadowMatrixInner1"/></feMerge></filter><path id="path-7" d="M1,1 L1,5 L3,5 L3,1 L1,1 Z M0,0 L0,1 L4,1 L4,0 L0,0 Z"/><filter id="filter-8" width="200%" height="200%" x="-50%" y="-50%" filterUnits="objectBoundingBox"><feOffset dx="0" dy="1" in="SourceAlpha" result="shadowOffsetOuter1"/><feGaussianBlur in="shadowOffsetOuter1" result="shadowBlurOuter1" stdDeviation="0"/><feColorMatrix in="shadowBlurOuter1" result="shadowMatrixOuter1" type="matrix" values="0 0 0 0 1 0 0 0 0 1 0 0 0 0 1 0 0 0 0.7 0"/><feOffset dx="0" dy="1" in="SourceAlpha" result="shadowOffsetInner1"/><feGaussianBlur in="shadowOffsetInner1" result="shadowBlurInner1" stdDeviation="0"/><feComposite in="shadowBlurInner1" in2="SourceAlpha" k2="-1" k3="1" operator="arithmetic" result="shadowInnerInner1"/><feColorMatrix in="shadowInnerInner1" result="shadowMatrixInner1" type="matrix" values="0 0 0 0 0 0 0 0 0 0 0 0 0 0 0 0 0 0 0.613768116 0"/><feMerge><feMergeNode in="shadowMatrixOuter1"/><feMergeNode in="SourceGraphic"/><feMergeNode in="shadowMatrixInner1"/></feMerge></filter><rect id="path-9" width="4" height="1" x="0" y="5"/></defs><g id="icons-moono" fill="none" fill-rule="evenodd" stroke="none" stroke-width="1"><g id="folder-rename"><g transform="translate(2.000000, 2.000000)"><g id="Rectangle-8" filter="url(#filter-2)"><use fill="url(#linearGradient-1)" fill-rule="evenodd" xlink:href="#path-3"/><use fill="none" xlink:href="#path-3"/><use fill="none" xlink:href="#path-3"/></g><g id="Oval-20" filter="url(#filter-4)"><use fill="url(#linearGradient-1)" fill-rule="evenodd" xlink:href="#path-5"/><use fill="none" xlink:href="#path-5"/><use fill="none" xlink:href="#path-5"/></g><g id="Path-+-Rectangle-31-+-Rectangle-32" transform="translate(7.000000, 6.000000)"><g id="Path" filter="url(#filter-6)"><use fill="url(#linearGradient-1)" fill-rule="evenodd" xlink:href="#path-7"/><use fill="none" xlink:href="#path-7"/><use fill="none" xlink:href="#path-7"/></g><g id="Rectangle-32" filter="url(#filter-8)"><use fill="url(#linearGradient-1)" fill-rule="evenodd" xlink:href="#path-9"/><use fill="none" xlink:href="#path-9"/><use fill="none" xlink:href="#path-9"/></g></g></g></g></g></svg>