<svg xmlns="http://www.w3.org/2000/svg" xmlns:xlink="http://www.w3.org/1999/xlink" width="16" height="16" version="1.1" viewBox="0 0 16 16"><title>hue-black</title><desc>Created with Sketch.</desc><defs><linearGradient id="linearGradient-1" x1="60.012%" x2="60.012%" y1="-2.283%" y2="97.374%"><stop offset="0%" stop-color="#666"/><stop offset="100%" stop-color="#3F3F3F"/></linearGradient><filter id="filter-2" width="200%" height="200%" x="-50%" y="-50%" filterUnits="objectBoundingBox"><feOffset dx="0" dy="1" in="SourceAlpha" result="shadowOffsetOuter1"/><feGaussianBlur in="shadowOffsetOuter1" result="shadowBlurOuter1" stdDeviation="0"/><feColorMatrix in="shadowBlurOuter1" result="shadowMatrixOuter1" type="matrix" values="0 0 0 0 1 0 0 0 0 1 0 0 0 0 1 0 0 0 0.7 0"/><feOffset dx="0" dy="1" in="SourceAlpha" result="shadowOffsetInner1"/><feGaussianBlur in="shadowOffsetInner1" result="shadowBlurInner1" stdDeviation="0"/><feComposite in="shadowBlurInner1" in2="SourceAlpha" k2="-1" k3="1" operator="arithmetic" result="shadowInnerInner1"/><feColorMatrix in="shadowInnerInner1" result="shadowMatrixInner1" type="matrix" values="0 0 0 0 0 0 0 0 0 0 0 0 0 0 0 0 0 0 0.613768116 0"/><feMerge><feMergeNode in="shadowMatrixOuter1"/><feMergeNode in="SourceGraphic"/><feMergeNode in="shadowMatrixInner1"/></feMerge></filter><path id="path-3" d="M1.00684547,0 C0.450780073,0 0,0.455760956 0,1.00247329 L0,10.9975267 C0,11.5511774 0.449948758,12 1.00684547,12 L12.9931545,12 C13.5492199,12 14,11.544239 14,10.9975267 L14,1.00247329 C14,0.448822582 13.5500512,0 12.9931545,0 L1.00684547,0 Z M1,1 L1,11 L13,11 L13,1 L1,1 Z"/><linearGradient id="linearGradient-4" x1="1.563%" x2="100%" y1="50%" y2="50%"><stop offset="0%" stop-color="#000" stop-opacity="0"/><stop offset="30.475%" stop-color="#000"/><stop offset="65.396%" stop-color="#000" stop-opacity="0"/><stop offset="100%" stop-color="#000"/></linearGradient></defs><g id="icons-moono" fill="none" fill-rule="evenodd" stroke="none" stroke-width="1"><g id="hue"><g transform="translate(1.000000, 2.000000)"><g id="Rectangle-45" filter="url(#filter-2)"><use fill="url(#linearGradient-1)" fill-rule="evenodd" xlink:href="#path-3"/><use fill="none" xlink:href="#path-3"/><use fill="none" xlink:href="#path-3"/></g><rect id="Rectangle-6" width="10" height="8" x="2" y="2" fill="url(#linearGradient-4)"/></g></g></g></svg>