<svg xmlns="http://www.w3.org/2000/svg" xmlns:xlink="http://www.w3.org/1999/xlink" width="16" height="16" version="1.1" viewBox="0 0 16 16"><title>noise-black</title><desc>Created with Sketch.</desc><defs><linearGradient id="linearGradient-1" x1="60.012%" x2="60.012%" y1="-2.283%" y2="97.374%"><stop offset="0%" stop-color="#666"/><stop offset="100%" stop-color="#3F3F3F"/></linearGradient><filter id="filter-2" width="200%" height="200%" x="-50%" y="-50%" filterUnits="objectBoundingBox"><feOffset dx="0" dy="1" in="SourceAlpha" result="shadowOffsetOuter1"/><feGaussianBlur in="shadowOffsetOuter1" result="shadowBlurOuter1" stdDeviation="0"/><feColorMatrix in="shadowBlurOuter1" result="shadowMatrixOuter1" type="matrix" values="0 0 0 0 1 0 0 0 0 1 0 0 0 0 1 0 0 0 0.7 0"/><feOffset dx="0" dy="1" in="SourceAlpha" result="shadowOffsetInner1"/><feGaussianBlur in="shadowOffsetInner1" result="shadowBlurInner1" stdDeviation="0"/><feComposite in="shadowBlurInner1" in2="SourceAlpha" k2="-1" k3="1" operator="arithmetic" result="shadowInnerInner1"/><feColorMatrix in="shadowInnerInner1" result="shadowMatrixInner1" type="matrix" values="0 0 0 0 0 0 0 0 0 0 0 0 0 0 0 0 0 0 0.613768116 0"/><feMerge><feMergeNode in="shadowMatrixOuter1"/><feMergeNode in="SourceGraphic"/><feMergeNode in="shadowMatrixInner1"/></feMerge></filter><path id="path-3" d="M1.00684547,0 C0.450780073,0 0,0.455760956 0,1.00247329 L0,10.9975267 C0,11.5511774 0.449948758,12 1.00684547,12 L12.9931545,12 C13.5492199,12 14,11.544239 14,10.9975267 L14,1.00247329 C14,0.448822582 13.5500512,0 12.9931545,0 L1.00684547,0 Z M1,1 L1,11 L13,11 L13,1 L1,1 Z M2,2 L2,3 L3,3 L3,2 L2,2 Z M3,4 L3,5 L4,5 L4,4 L3,4 Z M4,5 L4,6 L5,6 L5,5 L4,5 Z M2,7 L2,8 L3,8 L3,7 L2,7 Z M3,9 L3,10 L4,10 L4,9 L3,9 Z M5,8 L5,9 L6,9 L6,8 L5,8 Z M6,9 L6,10 L7,10 L7,9 L6,9 Z M2,5 L2,6 L3,6 L3,5 L2,5 Z M5,6 L5,7 L6,7 L6,6 L5,6 Z M5,3 L5,4 L6,4 L6,3 L5,3 Z M8,8 L8,9 L9,9 L9,8 L8,8 Z M7,5 L7,6 L8,6 L8,5 L7,5 Z M9,3 L9,4 L10,4 L10,3 L9,3 Z M7,2 L7,3 L8,3 L8,2 L7,2 Z M10,5 L10,6 L11,6 L11,5 L10,5 Z M11,3 L11,4 L12,4 L12,3 L11,3 Z M9,6 L9,7 L10,7 L10,6 L9,6 Z M10,7 L10,8 L11,8 L11,7 L10,7 Z M9,9 L9,10 L10,10 L10,9 L9,9 Z M11,9 L11,10 L12,10 L12,9 L11,9 Z M11,6 L11,7 L12,7 L12,6 L11,6 Z"/></defs><g id="icons-moono" fill="none" fill-rule="evenodd" stroke="none" stroke-width="1"><g id="noise" filter="url(#filter-2)"><g id="Rectangle-45"><g transform="translate(1.000000, 2.000000)"><use fill="url(#linearGradient-1)" fill-rule="evenodd" xlink:href="#path-3"/><use fill="none" xlink:href="#path-3"/><use fill="none" xlink:href="#path-3"/></g></g></g></g></svg>