<svg xmlns="http://www.w3.org/2000/svg" xmlns:xlink="http://www.w3.org/1999/xlink" width="16" height="16" version="1.1" viewBox="0 0 16 16"><title>plus-black</title><desc>Created with Sketch.</desc><defs><linearGradient id="linearGradient-1" x1="60.012%" x2="60.012%" y1="-2.283%" y2="97.374%"><stop offset="0%" stop-color="#666"/><stop offset="100%" stop-color="#3F3F3F"/></linearGradient><filter id="filter-2" width="200%" height="200%" x="-50%" y="-50%" filterUnits="objectBoundingBox"><feOffset dx="0" dy="1" in="SourceAlpha" result="shadowOffsetOuter1"/><feGaussianBlur in="shadowOffsetOuter1" result="shadowBlurOuter1" stdDeviation="0"/><feColorMatrix in="shadowBlurOuter1" result="shadowMatrixOuter1" type="matrix" values="0 0 0 0 1 0 0 0 0 1 0 0 0 0 1 0 0 0 0.7 0"/><feOffset dx="0" dy="1" in="SourceAlpha" result="shadowOffsetInner1"/><feGaussianBlur in="shadowOffsetInner1" result="shadowBlurInner1" stdDeviation="0"/><feComposite in="shadowBlurInner1" in2="SourceAlpha" k2="-1" k3="1" operator="arithmetic" result="shadowInnerInner1"/><feColorMatrix in="shadowInnerInner1" result="shadowMatrixInner1" type="matrix" values="0 0 0 0 0 0 0 0 0 0 0 0 0 0 0 0 0 0 0.613768116 0"/><feMerge><feMergeNode in="shadowMatrixOuter1"/><feMergeNode in="SourceGraphic"/><feMergeNode in="shadowMatrixInner1"/></feMerge></filter><path id="path-3" d="M4,4 L4,1.00247329 C4,0.455760956 4.45190985,0 5.0093689,0 L6.9906311,0 C7.55664682,0 8,0.448822582 8,1.00247329 L8,4 L10.9975267,4 C11.544239,4 12,4.45190985 12,5.0093689 L12,6.9906311 C12,7.55664682 11.5511774,8 10.9975267,8 L8,8 L8,10.9975267 C8,11.544239 7.54809015,12 6.9906311,12 L5.0093689,12 C4.44335318,12 4,11.5511774 4,10.9975267 L4,8 L1.00247329,8 C0.455760956,8 0,7.54809015 0,6.9906311 L0,5.0093689 C0,4.44335318 0.448822582,4 1.00247329,4 L4,4 Z"/></defs><g id="icons-moono" fill="none" fill-rule="evenodd" stroke="none" stroke-width="1"><g id="plus" filter="url(#filter-2)"><g id="Rectangle-75"><g transform="translate(2.000000, 2.000000)"><use fill="url(#linearGradient-1)" fill-rule="evenodd" xlink:href="#path-3"/><use fill="none" xlink:href="#path-3"/><use fill="none" xlink:href="#path-3"/></g></g></g></g></svg>