<svg xmlns="http://www.w3.org/2000/svg" xmlns:xlink="http://www.w3.org/1999/xlink" width="16" height="16" version="1.1" viewBox="0 0 16 16"><title>save-black</title><desc>Created with Sketch.</desc><defs><linearGradient id="linearGradient-1" x1="60.012%" x2="60.012%" y1="-2.283%" y2="97.374%"><stop offset="0%" stop-color="#666"/><stop offset="100%" stop-color="#3F3F3F"/></linearGradient><filter id="filter-2" width="200%" height="200%" x="-50%" y="-50%" filterUnits="objectBoundingBox"><feOffset dx="0" dy="1" in="SourceAlpha" result="shadowOffsetOuter1"/><feGaussianBlur in="shadowOffsetOuter1" result="shadowBlurOuter1" stdDeviation="0"/><feColorMatrix in="shadowBlurOuter1" result="shadowMatrixOuter1" type="matrix" values="0 0 0 0 1 0 0 0 0 1 0 0 0 0 1 0 0 0 0.7 0"/><feOffset dx="0" dy="1" in="SourceAlpha" result="shadowOffsetInner1"/><feGaussianBlur in="shadowOffsetInner1" result="shadowBlurInner1" stdDeviation="0"/><feComposite in="shadowBlurInner1" in2="SourceAlpha" k2="-1" k3="1" operator="arithmetic" result="shadowInnerInner1"/><feColorMatrix in="shadowInnerInner1" result="shadowMatrixInner1" type="matrix" values="0 0 0 0 0 0 0 0 0 0 0 0 0 0 0 0 0 0 0.613768116 0"/><feMerge><feMergeNode in="shadowMatrixOuter1"/><feMergeNode in="SourceGraphic"/><feMergeNode in="shadowMatrixInner1"/></feMerge></filter><path id="path-3" d="M12.1676264,13.9926099 C12.1104492,13.9975031 12.0525872,14 11.9941413,14 L2.00585866,14 C0.897060126,14 0,13.1019465 0,11.9941413 L0,2.00585866 C0,0.897060126 0.898053512,0 2.00585866,0 L11.9941413,0 C13.1029399,0 14,0.898053512 14,2.00585866 L14,11.9941413 C14,12.05259 13.9975046,12.1104502 13.9926145,12.1676218 L12.1676264,13.9926099 L12.1676264,13.9926099 Z M3,9 L3,13 L11,13 L11,9 L3,9 Z M2.16666667,2 L2.16666667,7 L12,7 L12,2 L2.16666667,2 Z M7,10 L7,13 L9,13 L9,10 L7,10 Z"/></defs><g id="icons-moono" fill="none" fill-rule="evenodd" stroke="none" stroke-width="1"><g id="save" filter="url(#filter-2)"><g id="Rectangle-153"><g transform="translate(8.000000, 8.000000) scale(-1, 1) translate(-8.000000, -8.000000) translate(1.000000, 1.000000)"><use fill="url(#linearGradient-1)" fill-rule="evenodd" xlink:href="#path-3"/><use fill="none" xlink:href="#path-3"/><use fill="none" xlink:href="#path-3"/></g></g></g></g></svg>