<svg xmlns="http://www.w3.org/2000/svg" xmlns:xlink="http://www.w3.org/1999/xlink" width="16" height="16" version="1.1" viewBox="0 0 16 16"><title>sepia-black</title><desc>Created with Sketch.</desc><defs><linearGradient id="linearGradient-1" x1="60.012%" x2="60.012%" y1="-2.283%" y2="97.374%"><stop offset="0%" stop-color="#666"/><stop offset="100%" stop-color="#3F3F3F"/></linearGradient><filter id="filter-2" width="200%" height="200%" x="-50%" y="-50%" filterUnits="objectBoundingBox"><feOffset dx="0" dy="1" in="SourceAlpha" result="shadowOffsetOuter1"/><feGaussianBlur in="shadowOffsetOuter1" result="shadowBlurOuter1" stdDeviation="0"/><feColorMatrix in="shadowBlurOuter1" result="shadowMatrixOuter1" type="matrix" values="0 0 0 0 1 0 0 0 0 1 0 0 0 0 1 0 0 0 0.7 0"/><feOffset dx="0" dy="1" in="SourceAlpha" result="shadowOffsetInner1"/><feGaussianBlur in="shadowOffsetInner1" result="shadowBlurInner1" stdDeviation="0"/><feComposite in="shadowBlurInner1" in2="SourceAlpha" k2="-1" k3="1" operator="arithmetic" result="shadowInnerInner1"/><feColorMatrix in="shadowInnerInner1" result="shadowMatrixInner1" type="matrix" values="0 0 0 0 0 0 0 0 0 0 0 0 0 0 0 0 0 0 0.613768116 0"/><feMerge><feMergeNode in="shadowMatrixOuter1"/><feMergeNode in="SourceGraphic"/><feMergeNode in="shadowMatrixInner1"/></feMerge></filter><path id="path-3" d="M7.90628052,0.833743479 C8.31172399,0.550018699 8.81808809,0.316775213 9.38715754,0.31677519 C10.8396653,0.316775133 12.0315654,1.71683735 12.292173,1.83632819 C13.8354625,2.54393979 15.015625,0.942473531 15.015625,0.942473531 C15.015625,0.942473531 14.4709346,3.35588134 12.292173,4.29442882 C10.8819102,4.90192926 9.03424916,3.69312219 7.90628052,2.76479353 C6.77831187,3.69312219 4.93065085,4.90192926 3.52038803,4.29442882 C1.34162643,3.35588134 0.796936035,0.942473531 0.796936035,0.942473531 C0.796936035,0.942473531 1.97709857,2.54393979 3.52038803,1.83632819 C3.78099564,1.71683735 4.97289576,0.316775133 6.42540349,0.31677519 C6.99447295,0.316775213 7.50083705,0.550018699 7.90628052,0.833743479 Z"/><filter id="filter-4" width="200%" height="200%" x="-50%" y="-50%" filterUnits="objectBoundingBox"><feOffset dx="0" dy="1" in="SourceAlpha" result="shadowOffsetOuter1"/><feGaussianBlur in="shadowOffsetOuter1" result="shadowBlurOuter1" stdDeviation="0"/><feColorMatrix in="shadowBlurOuter1" result="shadowMatrixOuter1" type="matrix" values="0 0 0 0 1 0 0 0 0 1 0 0 0 0 1 0 0 0 0.7 0"/><feOffset dx="0" dy="1" in="SourceAlpha" result="shadowOffsetInner1"/><feGaussianBlur in="shadowOffsetInner1" result="shadowBlurInner1" stdDeviation="0"/><feComposite in="shadowBlurInner1" in2="SourceAlpha" k2="-1" k3="1" operator="arithmetic" result="shadowInnerInner1"/><feColorMatrix in="shadowInnerInner1" result="shadowMatrixInner1" type="matrix" values="0 0 0 0 0 0 0 0 0 0 0 0 0 0 0 0 0 0 0.613768116 0"/><feMerge><feMergeNode in="shadowMatrixOuter1"/><feMergeNode in="SourceGraphic"/><feMergeNode in="shadowMatrixInner1"/></feMerge></filter><path id="path-5" d="M10,5 L10.9975267,5 C11.544239,5 12,5.44771525 12,6 C12,6.55613518 11.5511774,7 10.9975267,7 L1.00247329,7 C0.455760956,7 0,6.55228475 0,6 C0,5.44386482 0.448822582,5 1.00247329,5 L2,5 L2,1.00292933 C2,0.437881351 2.4463856,0 2.99703014,0 L9.00296986,0 C9.54696369,0 10,0.449026756 10,1.00292933 L10,5 Z"/></defs><g id="icons-moono" fill="none" fill-rule="evenodd" stroke="none" stroke-width="1"><g id="sepia"><g transform="translate(0.000000, 2.000000)"><g id="stache" filter="url(#filter-2)" transform="translate(0.000000, 8.000000)"><g id="Path-33"><use fill="url(#linearGradient-1)" fill-rule="evenodd" xlink:href="#path-3"/><use fill="none" xlink:href="#path-3"/><use fill="none" xlink:href="#path-3"/></g></g><g id="tophat" filter="url(#filter-4)" transform="translate(2.000000, 0.000000)"><g id="Rectangle-164"><use fill="url(#linearGradient-1)" fill-rule="evenodd" xlink:href="#path-5"/><use fill="none" xlink:href="#path-5"/><use fill="none" xlink:href="#path-5"/></g></g></g></g></g></svg>