<svg xmlns="http://www.w3.org/2000/svg" xmlns:xlink="http://www.w3.org/1999/xlink" width="16" height="16" version="1.1" viewBox="0 0 16 16"><title>view-black</title><desc>Created with Sketch.</desc><defs><linearGradient id="linearGradient-1" x1="60.012%" x2="60.012%" y1="-2.283%" y2="97.374%"><stop offset="0%" stop-color="#666"/><stop offset="100%" stop-color="#3F3F3F"/></linearGradient><filter id="filter-2" width="200%" height="200%" x="-50%" y="-50%" filterUnits="objectBoundingBox"><feOffset dx="0" dy="1" in="SourceAlpha" result="shadowOffsetOuter1"/><feGaussianBlur in="shadowOffsetOuter1" result="shadowBlurOuter1" stdDeviation="0"/><feColorMatrix in="shadowBlurOuter1" result="shadowMatrixOuter1" type="matrix" values="0 0 0 0 1 0 0 0 0 1 0 0 0 0 1 0 0 0 0.7 0"/><feOffset dx="0" dy="1" in="SourceAlpha" result="shadowOffsetInner1"/><feGaussianBlur in="shadowOffsetInner1" result="shadowBlurInner1" stdDeviation="0"/><feComposite in="shadowBlurInner1" in2="SourceAlpha" k2="-1" k3="1" operator="arithmetic" result="shadowInnerInner1"/><feColorMatrix in="shadowInnerInner1" result="shadowMatrixInner1" type="matrix" values="0 0 0 0 0 0 0 0 0 0 0 0 0 0 0 0 0 0 0.613768116 0"/><feMerge><feMergeNode in="shadowMatrixOuter1"/><feMergeNode in="SourceGraphic"/><feMergeNode in="shadowMatrixInner1"/></feMerge></filter><path id="path-3" d="M7,10 C10.8659932,10 14,5.953125 14,5 C14,4.046875 10.8659932,0 7,0 C3.13400675,0 8.30463593e-17,4.046875 0,5 C8.17069036e-17,5.953125 3.13400675,10 7,10 Z M7,8 C8.65685425,8 10,6.65685425 10,5 C10,3.34314575 8.65685425,2 7,2 C5.34314575,2 4,3.34314575 4,5 C4,6.65685425 5.34314575,8 7,8 Z M6,5 C6.55228475,5 7,4.55228475 7,4 C7,3.44771525 6.55228475,3 6,3 C5.44771525,3 5,3.44771525 5,4 C5,4.55228475 5.44771525,5 6,5 Z"/></defs><g id="icons-moono" fill="none" fill-rule="evenodd" stroke="none" stroke-width="1"><g id="view" filter="url(#filter-2)"><g id="Oval-12"><g transform="translate(1.000000, 3.000000)"><use fill="url(#linearGradient-1)" fill-rule="evenodd" xlink:href="#path-3"/><use fill="none" xlink:href="#path-3"/><use fill="none" xlink:href="#path-3"/></g></g></g></g></svg>