<svg xmlns="http://www.w3.org/2000/svg" xmlns:xlink="http://www.w3.org/1999/xlink" width="16" height="16" version="1.1" viewBox="0 0 16 16"><title>icons/trash</title><desc>Created with Sketch.</desc><defs><path id="path-1" d="M2.64285714,13.4285714 C2.64285714,14.2666667 3.44642857,14.952381 4.42857143,14.952381 L11.5714286,14.952381 C12.5535714,14.952381 13.3571429,14.2666667 13.3571429,13.4285714 L13.3571429,4.28571429 L2.64285714,4.28571429 L2.64285714,13.4285714 Z M11.125,1.9047619 L10.2321429,1.11111111 L5.76785714,1.11111111 L4.875,1.9047619 L1.75,1.9047619 L1.75,3.49206349 L14.25,3.49206349 L14.25,1.9047619 L11.125,1.9047619 Z"/></defs><g id="icons/trash" fill="none" fill-rule="evenodd" stroke="none" stroke-width="1"><polygon id="Shape" points="0 1 16 1 16 15.222 0 15.222"/><mask id="mask-2" fill="#fff"><use xlink:href="#path-1"/></mask><use id="Mask" fill="#000" fill-rule="nonzero" xlink:href="#path-1"/><g id="colors/grey-2" fill="#3B474E" mask="url(#mask-2)"><g id="Shape" transform="translate(0.000000, 1.000000)"><polygon points="0 0 16 0 16 14 0 14"/></g></g></g></svg>